<svg width="30" height="32" viewBox="0 0 30 32" fill="none" xmlns="http://www.w3.org/2000/svg">
<path d="M21.4177 9.13723C20.0724 7.93554 18.4164 7.13603 16.6387 6.82985C14.861 6.52368 13.033 6.72315 11.3632 7.40554C9.69335 8.08792 8.24884 9.22576 7.19434 10.6893C6.13984 12.1529 5.51778 13.8833 5.39908 15.6833C5.27512 17.3713 5.60201 19.0619 6.34627 20.582C7.09054 22.1021 8.22545 23.3971 9.63477 24.3344C9.76309 24.4173 9.87044 24.5288 9.94838 24.6602C10.0263 24.7916 10.0728 24.9393 10.084 25.0917L10.3536 29.4685C10.3926 30.0793 10.6622 30.6523 11.1079 31.0717C11.5535 31.4911 12.1418 31.7256 12.7538 31.7276H17.259C17.871 31.7256 18.4593 31.4911 18.9049 31.0717C19.3506 30.6523 19.6202 30.0793 19.6592 29.4685L19.9288 25.0788C19.9415 24.9253 19.9899 24.7769 20.0701 24.6454C20.1503 24.5139 20.2602 24.403 20.3909 24.3215C21.6101 23.5022 22.6256 22.4148 23.3597 21.1424C24.0937 19.8701 24.5269 18.4466 24.626 16.9811C24.7252 15.5155 24.4876 14.0467 23.9314 12.6871C23.3753 11.3275 22.5155 10.1132 21.4177 9.13723ZM17.8751 26.9015H12.1248V25.9388H17.9906L17.8751 26.9015ZM17.2462 29.7894H12.7538C12.6331 29.7866 12.5177 29.7391 12.4299 29.6561C12.3422 29.5732 12.2884 29.4606 12.2789 29.3402V28.8268H17.7981V29.3402C17.7934 29.4067 17.7752 29.4716 17.7445 29.5308C17.7137 29.59 17.6712 29.6423 17.6195 29.6844C17.5677 29.7265 17.5079 29.7575 17.4437 29.7756C17.3795 29.7937 17.3123 29.7984 17.2462 29.7894ZM19.287 22.7043C18.8154 23.0203 18.4454 23.4661 18.2217 23.9878H11.804C11.5809 23.4657 11.2107 23.0197 10.7386 22.7043C9.60862 21.9574 8.69558 20.9257 8.09163 19.7133C7.48768 18.5009 7.21418 17.1507 7.29872 15.7988C7.41899 14.0015 8.1655 12.3031 9.40841 10.9993C10.6513 9.69539 12.312 8.86846 14.1015 8.66232C14.4008 8.64569 14.7007 8.64569 15 8.66232C16.8962 8.65451 18.7271 9.35483 20.1342 10.6261C21.0083 11.408 21.6924 12.3791 22.1341 13.4655C22.5759 14.5519 22.7637 15.7249 22.6832 16.8949C22.6027 18.0649 22.2561 19.2011 21.6698 20.2168C21.0834 21.2325 20.2728 22.1008 19.2999 22.7556L19.287 22.7043Z" fill="white"/>
<line x1="14.6791" y1="3.16044" x2="14.6791" y2="1.23512" stroke="white" stroke-width="1.92531" stroke-linecap="round"/>
<line x1="26.8728" y1="14.7123" x2="28.7981" y2="14.7123" stroke="white" stroke-width="1.92531" stroke-linecap="round"/>
<line x1="1.20191" y1="14.7123" x2="3.12723" y2="14.7123" stroke="white" stroke-width="1.92531" stroke-linecap="round"/>
<line x1="23.343" y1="6.76805" x2="24.7044" y2="5.40665" stroke="white" stroke-width="1.92531" stroke-linecap="round"/>
<line x1="0.962657" y1="-0.962657" x2="2.88797" y2="-0.962657" transform="matrix(-0.707107 -0.707107 -0.707107 0.707107 6.81271 8.12946)" stroke="white" stroke-width="1.92531" stroke-linecap="round"/>
</svg>
